<svg width="28" height="28" viewBox="0 0 28 28" fill="none" xmlns="http://www.w3.org/2000/svg">
<g clip-path="url(#clip0_211_1564)">
<path d="M17.8656 12.1046C19.0633 13.1205 19.2155 13.2617 19.7425 13.7156C20.1287 13.3843 20.4601 13.083 21.8646 11.9051C24.4425 9.74055 26.305 8.17764 26.305 5.86895C26.305 3.68035 24.6973 1.96606 22.6449 1.96606C21.2662 1.96606 20.3514 2.74394 19.777 3.5362C19.2331 2.74153 18.3487 1.96606 16.966 1.96606C14.9136 1.96606 13.3066 3.68041 13.3066 5.86895C13.3066 8.23615 15.1203 9.775 17.8656 12.1046Z" fill="white"/>
<path d="M4.69224 25.591C6.84146 24.1309 9.19307 23.573 11.7524 23.9996L15.854 24.705C17.4291 24.9676 18.8727 24.8855 20.1196 24.4754C22.6991 23.6157 25.2814 20.9081 25.9657 19.8816C26.9173 18.4543 27.4401 16.8957 27.7683 16.141C28.08 15.4192 28.08 14.9106 27.7519 14.6153C27.3745 14.2707 26.7347 14.4511 26.2588 14.7137C25.5042 15.1403 24.7024 16.3707 23.8821 17.5519C22.8158 19.0941 20.9892 20.0129 19.1188 20.0129H13.1797V18.3722H15.6407C20.0047 18.3722 21.957 17.5519 21.957 16.7316C21.957 16.0426 20.5954 15.7308 20.1359 15.6324C18.3477 15.2223 14.3117 15.0254 11.5555 13.7949C11.0585 13.5774 10.495 13.4554 9.8986 13.4504C8.96355 13.4424 7.94735 13.7337 6.97812 14.4839C6.96182 14.4839 6.96182 14.4839 6.94536 14.5004C6.30552 14.9925 5.43052 15.7144 4.24927 16.748C3.24844 17.6339 2.28052 18.7659 0.590625 20.2097L0 20.7183L4.03599 26.034L4.69224 25.591Z" fill="white"/>
</g>
<defs>
<clipPath id="clip0_211_1564">
<rect width="28" height="28" fill="white"/>
</clipPath>
</defs>
</svg>
