<svg width="24" height="24" viewBox="0 0 24 24" fill="none" xmlns="http://www.w3.org/2000/svg">
<path d="M8.0024 23.5849C5.93411 23.5849 2.96874 23.1191 0.476824 20.9354C0.0282802 20.5569 -0.121235 19.8582 0.103038 19.2467C0.302391 18.6353 0.850611 18.315 1.39883 18.4315C1.39883 18.4315 3.21793 18.7809 4.86259 18.1112C3.9655 17.4707 3.04349 16.3934 2.54511 14.5591C2.47035 14.268 2.47035 13.9768 2.54511 13.6857C1.72278 12.7248 0.925369 11.2108 0.950288 8.91069C0.950288 8.50308 1.12472 8.12457 1.37391 7.86253C0.87553 6.43587 0.576501 4.33955 1.72278 2.03942C1.92213 1.66091 2.271 1.39887 2.64479 1.34064C3.04349 1.31153 3.41728 1.48622 3.66647 1.83561C3.69139 1.86472 6.75644 5.99914 10.5691 6.61056C10.6687 3.11669 13.1108 0.29248 16.126 0.29248C17.4218 0.29248 18.6927 0.816561 19.6645 1.77738C20.1131 1.71914 20.8108 1.51534 21.4836 0.962139C21.8325 0.670983 22.306 0.612752 22.6798 0.845677C23.0785 1.04949 23.3277 1.51533 23.3775 2.0103C23.3775 2.15588 23.3775 2.44703 23.2778 2.82554C23.3526 2.85465 23.4273 2.91288 23.4772 2.97111C23.9008 3.3205 24.1002 3.93193 23.9506 4.51424C23.8011 5.1839 23.0536 6.23206 21.7328 7.65872C21.683 10.4829 20.8108 20.5569 10.7933 23.2938C10.7933 23.2938 9.64706 23.5849 8.0024 23.5849ZM1.84738 20.0911C3.91566 21.6342 6.3079 21.9836 8.0024 21.9836C9.49755 21.9836 10.5192 21.7216 10.5442 21.7216C20.0383 19.1303 20.437 9.26008 20.4121 7.30934V6.95995L20.6364 6.72703C21.5584 5.73709 22.0817 5.06744 22.3558 4.65982C22.306 4.65982 22.2811 4.65982 22.2312 4.68893L20.8357 5.24213C20.6115 5.32948 20.4121 5.00921 20.5616 4.77628L21.4836 3.43696C21.7328 3.08758 21.8574 2.79642 21.9322 2.5635C20.9853 3.23315 20.0882 3.40785 19.4652 3.43696H19.1911L18.9668 3.20404C18.1943 2.35969 17.1726 1.89384 16.126 1.89384C13.8086 1.89384 11.9396 4.07751 11.9396 6.78526C11.9396 6.98907 11.9396 7.16376 11.9645 7.36757L12.0144 7.94988C12.0393 8.12457 11.9147 8.27015 11.7652 8.27015L11.2668 8.24104C7.03055 8.15369 3.5668 4.07751 2.76938 3.08758C1.89721 5.06744 2.3956 6.81437 2.99366 7.979L3.81599 9.58035C3.94058 9.84239 3.71631 10.1335 3.49204 9.98797L2.34576 9.26008C2.3956 10.8323 2.9189 12.0552 3.91566 12.9286L4.51372 13.4818C4.66324 13.6274 4.63832 13.8895 4.46388 13.9768L3.91566 14.2388C4.4888 16.1896 5.73476 16.9757 6.68169 17.2669L7.57877 17.558C7.77813 17.6163 7.82797 17.9365 7.65353 18.0821L6.90596 18.6935C5.16162 20.1202 2.96874 20.1784 1.84738 20.0911Z" fill="white"/>
</svg>
