<svg width="17" height="28" viewBox="0 0 17 28" fill="none" xmlns="http://www.w3.org/2000/svg">
<path d="M10.5743 27.5849H6.67852C5.74118 27.5849 4.95031 26.8386 4.95031 25.954V16.0303H1.72821C0.790877 16.0303 0 15.2839 0 14.3993V11.5521C0 10.6676 0.790877 9.92122 1.72821 9.92122H4.92101V7.35044C4.92101 3.53574 7.58656 0.964966 11.5702 0.964966H14.5287C15.466 0.964966 16.2569 1.71132 16.2569 2.59589V5.9683C16.2569 6.85287 15.466 7.59923 14.5287 7.59923H12.4783C12.4197 7.59923 12.3611 7.59923 12.3318 7.59923C12.3318 7.65451 12.3318 7.68215 12.3318 7.7098V9.92122H15.261C15.7883 9.92122 16.2862 10.1424 16.6084 10.5294C16.9306 10.9164 17.0771 11.4139 16.9599 11.8839L16.3448 14.7034C16.1983 15.4498 15.466 16.0026 14.6459 16.0026H12.3025V25.954C12.3025 26.8109 11.5117 27.5849 10.5743 27.5849ZM1.72821 11.4416C1.66963 11.4416 1.61105 11.4969 1.61105 11.5521V14.427C1.61105 14.4823 1.66963 14.5376 1.72821 14.5376H6.56135V25.954C6.56135 26.0093 6.61994 26.0646 6.67852 26.0646H10.5743C10.6329 26.0646 10.6915 26.0093 10.6915 25.954V14.4823H14.6459C14.7045 14.4823 14.763 14.4546 14.763 14.427L15.3782 11.5798C15.3782 11.5245 15.3782 11.4969 15.3489 11.4692C15.3196 11.4416 15.2903 11.4416 15.2317 11.4416H10.7208V7.7098C10.7208 6.71466 11.0137 6.07887 12.4783 6.07887H14.5287C14.5873 6.07887 14.6459 6.02359 14.6459 5.9683V2.56825C14.6459 2.51296 14.5873 2.45767 14.5287 2.45767H11.5702C8.5239 2.45767 6.53206 4.36502 6.53206 7.3228V11.4139H1.72821V11.4416Z" fill="white"/>
</svg>
