<svg width="24" height="27" viewBox="0 0 24 27" fill="none" xmlns="http://www.w3.org/2000/svg">
<path d="M23.9274 8.46099C23.8688 7.10239 23.6651 6.17688 23.3693 5.3641C23.0623 4.52461 22.6521 3.81268 21.9851 3.10372C21.3181 2.39476 20.6484 1.9587 19.8586 1.6324C19.094 1.31796 18.2233 1.10142 16.9451 1.03913C15.667 0.979798 15.2595 0.964966 12 0.964966C8.74047 0.964966 8.33302 0.979798 7.05209 1.04209C5.77395 1.10439 4.90326 1.32093 4.1386 1.63537C3.34884 1.96167 2.67907 2.39772 2.01209 3.10669C1.34512 3.81565 0.934884 4.52758 0.627907 5.36706C0.332093 6.17985 0.128372 7.10536 0.0697674 8.46395C0.0139535 9.82255 0 10.2556 0 13.7204C0 17.1851 0.0139536 17.6182 0.0725582 18.9797C0.131163 20.3383 0.334884 21.2638 0.630698 22.0766C0.937675 22.9161 1.34791 23.628 2.01488 24.337C2.68186 25.046 3.35163 25.482 4.1414 25.8083C4.90605 26.1228 5.77674 26.3393 7.05488 26.4016C8.33302 26.4609 8.74047 26.4758 12 26.4758C15.2595 26.4758 15.667 26.4609 16.9479 26.3986C18.226 26.3363 19.0967 26.1198 19.8614 25.8054C20.6512 25.4791 21.3209 25.043 21.9879 24.334C22.6549 23.6251 23.0651 22.9132 23.3721 22.0737C23.6679 21.2609 23.8716 20.3354 23.9302 18.9768C23.986 17.6182 24 17.1851 24 13.7204C24 10.2556 23.986 9.82255 23.9274 8.46099ZM21.7674 18.8759C21.7144 20.1188 21.5191 20.7952 21.3544 21.2431C21.1367 21.8393 20.8772 22.2635 20.4558 22.7085C20.0372 23.1534 19.6353 23.4323 19.0772 23.6636C18.653 23.8387 18.0195 24.0463 16.8502 24.1027C15.586 24.165 15.2065 24.1768 12 24.1768C8.79349 24.1768 8.41674 24.165 7.14977 24.1027C5.98046 24.0463 5.34419 23.8387 4.92279 23.6636C4.36186 23.4323 3.96279 23.1564 3.54419 22.7085C3.12558 22.2635 2.86326 21.8364 2.64558 21.2431C2.48093 20.7922 2.28558 20.1188 2.23256 18.8759C2.17395 17.5322 2.16279 17.1287 2.16279 13.7204C2.16279 10.312 2.17395 9.91154 2.23256 8.56481C2.28558 7.3219 2.48093 6.64557 2.64558 6.19765C2.86326 5.60141 3.12279 5.17721 3.54419 4.73226C3.96279 4.2873 4.36465 4.00846 4.92279 3.77709C5.34698 3.60207 5.98046 3.39442 7.14977 3.33806C8.41395 3.27577 8.79349 3.2639 12 3.2639C15.2065 3.2639 15.5833 3.27577 16.8502 3.33806C18.0195 3.39442 18.6558 3.60207 19.0772 3.77709C19.6381 4.00846 20.0372 4.28434 20.4558 4.73226C20.8744 5.17721 21.1367 5.60437 21.3544 6.19765C21.5191 6.64853 21.7144 7.3219 21.7674 8.56481C21.826 9.90858 21.8372 10.312 21.8372 13.7204C21.8372 17.1287 21.826 17.5292 21.7674 18.8759Z" fill="white"/>
<path d="M11.9978 7.17175C8.59315 7.17175 5.83594 10.1056 5.83594 13.7217C5.83594 17.3407 8.59594 20.2716 11.9978 20.2716C15.3997 20.2716 18.1597 17.3407 18.1597 13.7217C18.1597 10.1026 15.4025 7.17175 11.9978 7.17175ZM11.9978 17.9726C9.78757 17.9726 7.99873 16.0681 7.99873 13.7217C7.99873 11.3752 9.78757 9.47075 11.9978 9.47075C14.208 9.47075 15.9969 11.3722 15.9969 13.7217C15.9969 16.0711 14.208 17.9726 11.9978 17.9726Z" fill="white"/>
<path d="M18.7351 8.40135C19.5091 8.2071 19.9884 7.38276 19.8056 6.56013C19.6228 5.73749 18.8473 5.22809 18.0733 5.42233C17.2993 5.61658 16.82 6.44092 17.0028 7.26356C17.1855 8.08619 17.9611 8.5956 18.7351 8.40135Z" fill="white"/>
</svg>
