<svg width="40" height="20" viewBox="0 0 40 20" fill="none" xmlns="http://www.w3.org/2000/svg">
<path d="M2.66211 15H0.787109V0.78125H2.66211V15ZM8.76562 10.1074L7.63281 11.2891V15H5.82617V0H7.63281V9.07227L8.59961 7.91016L11.8906 4.43359H14.0879L9.97656 8.84766L14.5664 15H12.4473L8.76562 10.1074ZM20.1426 15.1953C18.7103 15.1953 17.5449 14.7266 16.6465 13.7891C15.748 12.8451 15.2988 11.5853 15.2988 10.0098V9.67773C15.2988 8.62956 15.4974 7.69531 15.8945 6.875C16.2982 6.04818 16.8581 5.40365 17.5742 4.94141C18.2969 4.47266 19.0781 4.23828 19.918 4.23828C21.2917 4.23828 22.3594 4.69076 23.1211 5.5957C23.8828 6.50065 24.2637 7.79622 24.2637 9.48242V10.2344H17.1055C17.1315 11.276 17.4342 12.1191 18.0137 12.7637C18.5996 13.4017 19.3418 13.7207 20.2402 13.7207C20.8783 13.7207 21.4186 13.5905 21.8613 13.3301C22.304 13.0697 22.6914 12.7246 23.0234 12.2949L24.127 13.1543C23.2415 14.515 21.9134 15.1953 20.1426 15.1953ZM19.918 5.72266C19.1888 5.72266 18.5768 5.98958 18.082 6.52344C17.5872 7.05078 17.2812 7.79297 17.1641 8.75H22.457V8.61328C22.4049 7.69531 22.1576 6.98568 21.7148 6.48438C21.2721 5.97656 20.6732 5.72266 19.918 5.72266ZM28.2285 4.43359V16.2207C28.2285 18.252 27.3073 19.2676 25.4648 19.2676C25.0677 19.2676 24.6999 19.209 24.3613 19.0918V17.6465C24.5697 17.6986 24.8431 17.7246 25.1816 17.7246C25.5853 17.7246 25.8913 17.6139 26.0996 17.3926C26.3145 17.1777 26.4219 16.8001 26.4219 16.2598V4.43359H28.2285ZM26.2363 1.63086C26.2363 1.3444 26.3242 1.10026 26.5 0.898438C26.6823 0.690104 26.946 0.585938 27.291 0.585938C27.6426 0.585938 27.9095 0.686849 28.0918 0.888672C28.2741 1.09049 28.3652 1.33789 28.3652 1.63086C28.3652 1.92383 28.2741 2.16797 28.0918 2.36328C27.9095 2.55859 27.6426 2.65625 27.291 2.65625C26.9395 2.65625 26.6758 2.55859 26.5 2.36328C26.3242 2.16797 26.2363 1.92383 26.2363 1.63086ZM37.6719 15C37.5677 14.7917 37.4831 14.4206 37.418 13.8867C36.5781 14.7591 35.5755 15.1953 34.4102 15.1953C33.3685 15.1953 32.5124 14.9023 31.8418 14.3164C31.1777 13.724 30.8457 12.9753 30.8457 12.0703C30.8457 10.9701 31.2624 10.1172 32.0957 9.51172C32.9355 8.89974 34.1139 8.59375 35.6309 8.59375H37.3887V7.76367C37.3887 7.13216 37.1999 6.63086 36.8223 6.25977C36.4447 5.88216 35.888 5.69336 35.1523 5.69336C34.5078 5.69336 33.9674 5.85612 33.5312 6.18164C33.0951 6.50716 32.877 6.90104 32.877 7.36328H31.0605C31.0605 6.83594 31.2461 6.32812 31.6172 5.83984C31.9948 5.34505 32.5026 4.95443 33.1406 4.66797C33.7852 4.38151 34.4915 4.23828 35.2598 4.23828C36.4772 4.23828 37.431 4.54427 38.1211 5.15625C38.8112 5.76172 39.1693 6.59831 39.1953 7.66602V12.5293C39.1953 13.4993 39.319 14.2708 39.5664 14.8438V15H37.6719ZM34.6738 13.623C35.2402 13.623 35.7773 13.4766 36.2852 13.1836C36.793 12.8906 37.1608 12.5098 37.3887 12.041V9.87305H35.9727C33.7591 9.87305 32.6523 10.5208 32.6523 11.8164C32.6523 12.3828 32.8411 12.8255 33.2188 13.1445C33.5964 13.4635 34.0814 13.623 34.6738 13.623Z" fill="white"/>
</svg>
