<svg width="22" height="40" viewBox="0 0 22 40" fill="none" xmlns="http://www.w3.org/2000/svg">
<path d="M11.197 38.0492V39.5H10.7535V38.0492V38.0131L10.7483 37.9773C10.4029 35.5992 9.75371 31.8135 8.78978 28.9963C8.17197 27.1906 6.93031 24.7676 5.68383 22.5386C4.43249 20.3009 3.15799 18.2268 2.45784 17.1089L2.44997 17.0963L2.44135 17.0842C1.21889 15.3678 0.5 13.2686 0.5 11C0.5 5.20101 5.20101 0.5 11 0.5C16.799 0.5 21.5 5.20101 21.5 11C21.5 13.2709 20.7797 15.372 19.555 17.0894L19.5469 17.1008L19.5394 17.1126C18.8169 18.2561 17.5286 20.3353 16.2702 22.5686C15.0168 24.793 13.7744 27.2025 13.1606 28.9963C12.1967 31.8135 11.5475 35.5992 11.2021 37.9773L11.197 38.0131V38.0492Z" fill="url(#paint0_linear_12_686)" stroke="#0B0146"/>
<defs>
<linearGradient id="paint0_linear_12_686" x1="0" y1="0" x2="0" y2="40" gradientUnits="userSpaceOnUse">
<stop stop-color="#0B0146"/>
<stop offset="1" stop-color="#0B4034"/>
</linearGradient>
</defs>
</svg>
