<svg width="46" height="46" viewBox="0 0 46 46" fill="none" xmlns="http://www.w3.org/2000/svg">
<g clip-path="url(#clip0_140_920)">
<path d="M2.22124 32.0308C2.31612 32.0308 2.39653 31.9527 2.41018 31.8429L2.92616 27.7532L2.41171 23.5706C2.39635 23.4607 2.31621 23.3821 2.22124 23.3821C2.12385 23.3821 2.04092 23.4624 2.02808 23.5706L1.57715 27.7532L2.02808 31.8414C2.04092 31.9512 2.12385 32.0308 2.22124 32.0308Z" fill="white"/>
<path d="M0.520736 30.4754C0.614084 30.4754 0.689733 30.4029 0.70339 30.2945L1.10311 27.7532L0.70339 25.1643C0.689553 25.0593 0.614174 24.9834 0.520736 24.9834C0.423345 24.9834 0.347966 25.0593 0.33413 25.1658L0 27.7532L0.33431 30.2939C0.347876 30.4013 0.423525 30.4754 0.520736 30.4754Z" fill="white"/>
<path d="M4.25621 22.7921C4.2439 22.6591 4.1466 22.5621 4.02594 22.5621C3.9059 22.5621 3.80851 22.6591 3.79719 22.7921L3.36621 27.7532L3.79719 32.5333C3.80851 32.6654 3.9059 32.7613 4.02594 32.7613C4.1466 32.7613 4.24399 32.6654 4.25621 32.5333L4.74379 27.7532L4.25621 22.7921Z" fill="white"/>
<path d="M5.85133 32.954C5.99275 32.954 6.10712 32.8376 6.12086 32.6855L6.58176 27.7549L6.12086 22.6553C6.10703 22.5022 5.99266 22.387 5.85133 22.387C5.70785 22.387 5.59204 22.5022 5.58207 22.6559L5.1748 27.7547L5.58207 32.6854C5.59204 32.8376 5.70794 32.954 5.85133 32.954Z" fill="white"/>
<path d="M7.68648 33.0339C7.85116 33.0339 7.98314 32.902 7.99698 32.7255L7.99545 32.7268L8.4294 27.7548L7.99545 23.0233C7.98314 22.8498 7.85116 22.7159 7.6863 22.7159C7.51919 22.7159 7.38775 22.8498 7.37777 23.0247L6.99414 27.7549L7.37777 32.7257C7.38793 32.902 7.51937 33.0339 7.68648 33.0339Z" fill="white"/>
<path d="M10.2936 27.756L9.88631 20.0629C9.87499 19.8679 9.72315 19.7124 9.53655 19.7124C9.35147 19.7124 9.19999 19.8678 9.18849 20.0629L8.82812 27.756L9.18849 32.7268C9.19981 32.9227 9.35147 33.0761 9.53655 33.0761C9.72315 33.0761 9.87499 32.9227 9.88631 32.7268V32.7281L10.2936 27.756Z" fill="white"/>
<path d="M11.4051 33.0842C11.6103 33.0842 11.7806 32.9139 11.7903 32.6964V32.6997L12.171 27.7573L11.7903 18.3033C11.7806 18.0859 11.6102 17.9156 11.4051 17.9156C11.1949 17.9156 11.0262 18.0859 11.0149 18.3033L10.6797 27.7573L11.0162 32.698C11.0262 32.9139 11.1949 33.0842 11.4051 33.0842Z" fill="white"/>
<path d="M13.285 17.0867C13.0537 17.0867 12.8671 17.2766 12.8577 17.5159L12.5459 27.7588L12.8577 32.6477C12.8674 32.8857 13.0538 33.0744 13.285 33.0744C13.5156 33.0744 13.7037 32.8874 13.7117 32.6468V32.6492L14.0654 27.7586L13.7117 17.5158C13.7037 17.275 13.5156 17.0867 13.285 17.0867Z" fill="white"/>
<path d="M15.1824 33.0842C15.4363 33.0842 15.6385 32.8794 15.648 32.6156V32.6185L15.9751 27.7589L15.648 17.1719C15.6383 16.9091 15.4363 16.7033 15.1824 16.7033C14.927 16.7033 14.7218 16.909 14.7176 17.1719L14.4238 27.7589L14.7176 32.6185C14.7218 32.8794 14.927 33.0842 15.1824 33.0842Z" fill="white"/>
<path d="M17.0922 33.0793C17.3663 33.0793 17.5887 32.8549 17.5969 32.5705V32.575L17.8979 27.7597L17.5969 17.442C17.5888 17.1577 17.3663 16.9343 17.0922 16.9343C16.8164 16.9343 16.5939 17.1577 16.5858 17.442L16.3213 27.7597L16.5875 32.5727C16.5939 32.8549 16.8164 33.0793 17.0922 33.0793Z" fill="white"/>
<path d="M19.8359 27.7598L19.5634 17.8183C19.5569 17.5117 19.3167 17.2708 19.019 17.2708C18.7204 17.2708 18.4802 17.5117 18.4739 17.8204L18.2295 27.7599L18.4739 32.5437C18.4802 32.8479 18.7203 33.0889 19.019 33.0889C19.3166 33.0889 19.5569 32.8479 19.5634 32.5393V32.5437L19.8359 27.7598Z" fill="white"/>
<path d="M20.9582 33.0975C21.2747 33.0975 21.5367 32.8343 21.5417 32.5106V32.5132L21.789 27.7623L21.5417 15.9322C21.5369 15.6073 21.2748 15.3443 20.9582 15.3443C20.6419 15.3443 20.3808 15.6084 20.3741 15.9337L20.1543 27.7574L20.3741 32.5133C20.3807 32.8343 20.6419 33.0975 20.9582 33.0975Z" fill="white"/>
<path d="M22.8908 14.2315C22.5491 14.2315 22.2718 14.5151 22.2662 14.8605L22.0107 27.7637L22.2677 32.4444C22.2718 32.7856 22.5492 33.0682 22.8908 33.0682C23.2274 33.0682 23.5099 32.7855 23.5114 32.4388V32.4444L23.7905 27.7637L23.5114 14.8605C23.5099 14.5138 23.2274 14.2315 22.8908 14.2315Z" fill="white"/>
<path d="M24.66 33.102C24.6738 33.1033 40.2423 33.1106 40.3422 33.1106C43.4678 33.1106 46.0008 30.5466 46.0008 27.3825C46.0008 24.2202 43.4677 21.6557 40.3422 21.6557C39.5664 21.6557 38.8274 21.8143 38.1533 22.1014C37.7052 16.9385 33.4285 12.8896 28.2108 12.8896C26.9354 12.8896 25.6918 13.1444 24.5933 13.5748C24.1656 13.7419 24.0513 13.9143 24.0479 14.2483V32.4244C24.0529 32.7754 24.3206 33.0671 24.66 33.102Z" fill="white"/>
</g>
<defs>
<clipPath id="clip0_140_920">
<rect width="46" height="46" fill="white"/>
</clipPath>
</defs>
</svg>
