<svg width="22" height="22" viewBox="0 0 22 22" fill="none" xmlns="http://www.w3.org/2000/svg">
<path d="M17.9824 14.6371V21.2305V21.2523H22.0005V16.9596L17.9824 14.6371Z" fill="#77B6D5"/>
<path d="M0 21.2523H4.01812V21.2305V14.632L0 16.9596V21.2523Z" fill="#77B6D5"/>
<path d="M4.72754 12.388V21.2304H8.847V17.4815C8.847 16.3057 9.80024 15.3525 10.976 15.3525H11.0234C12.1992 15.3525 13.1525 16.3057 13.1525 17.4815V21.2304H17.2719V12.388L10.9997 7.18518L4.72754 12.388Z" fill="#77B6D5"/>
<path d="M1.95215 11.4674L3.01638 12.7588L11.0004 6.18L18.9844 12.7588L20.0487 11.4674L11.4972 4.42099V2.85296H13.0323V1.85941H11.4972V0.747559H10.5036V1.85941H8.96852V2.85296H10.5036V4.42099L1.95215 11.4674Z" fill="#77B6D5"/>
</svg>
