<svg width="28" height="26" viewBox="0 0 28 26" fill="none" xmlns="http://www.w3.org/2000/svg">
<path d="M17.8656 11.1046C19.0633 12.1205 19.2155 12.2617 19.7425 12.7156C20.1287 12.3843 20.4601 12.083 21.8646 10.9051C24.4425 8.74055 26.305 7.17764 26.305 4.86895C26.305 2.68035 24.6973 0.966064 22.6449 0.966064C21.2662 0.966064 20.3514 1.74394 19.777 2.5362C19.2331 1.74153 18.3487 0.966064 16.966 0.966064C14.9136 0.966064 13.3066 2.68041 13.3066 4.86895C13.3066 7.23615 15.1203 8.775 17.8656 11.1046Z" fill="white"/>
<path d="M4.69224 24.591C6.84146 23.1309 9.19307 22.573 11.7524 22.9996L15.854 23.705C17.4291 23.9676 18.8727 23.8855 20.1196 23.4754C22.6991 22.6157 25.2814 19.9081 25.9657 18.8816C26.9173 17.4543 27.4401 15.8957 27.7683 15.141C28.08 14.4192 28.08 13.9106 27.7519 13.6153C27.3745 13.2707 26.7347 13.4511 26.2588 13.7137C25.5042 14.1403 24.7024 15.3707 23.8821 16.5519C22.8158 18.0941 20.9892 19.0129 19.1188 19.0129H13.1797V17.3722H15.6407C20.0047 17.3722 21.957 16.5519 21.957 15.7316C21.957 15.0426 20.5954 14.7308 20.1359 14.6324C18.3477 14.2223 14.3117 14.0254 11.5555 12.7949C11.0585 12.5774 10.495 12.4554 9.8986 12.4504C8.96355 12.4424 7.94735 12.7337 6.97812 13.4839C6.96182 13.4839 6.96182 13.4839 6.94536 13.5004C6.30552 13.9925 5.43052 14.7144 4.24927 15.748C3.24844 16.6339 2.28052 17.7659 0.590625 19.2097L0 19.7183L4.03599 25.034L4.69224 24.591Z" fill="white"/>
</svg>
